<svg xmlns="http://www.w3.org/2000/svg" viewBox="0 0 64 64" role="img" aria-labelledby="title desc">
  <title>VIS Auto favicon</title>
  <desc>VIS initials with a location pin replacing the letter I.</desc>
  <rect width="64" height="64" rx="18" fill="#111827" />
  <path
    d="M12 17h7l5 18 5-18h7l-9 30h-6L12 17Z"
    fill="#A3E635"
  />
  <path
    d="M49 22.2c-2.4 0-4.2 1.5-4.2 3.4 0 2.1 1.8 3 4.7 3.6 4.1.9 6.5 3 6.5 7.1 0 5-4.1 8.5-10.1 8.5-4.2 0-8-1.4-10.8-4.4l4.2-4.9c1.9 1.6 4 2.8 6.7 2.8 2.2 0 3.6-.9 3.6-2.4s-1.1-2.2-4.6-3c-4.3-1-6.7-2.6-6.7-7.3 0-4.5 3.5-7.7 9.3-7.7 3.9 0 7 1.2 9.5 3.3l-3.8 5.2c-1.8-1.3-3.7-2.1-5.6-2.1Z"
    fill="#F8FAFC"
  />
  <path
    d="M37 24.4c0 5.6-5 9.2-5 9.2s-5-3.6-5-9.2a5 5 0 1 1 10 0Z"
    fill="#A3E635"
  />
  <circle cx="32" cy="24.2" r="1.9" fill="#111827" />
  <path
    d="M29.4 35.5h5.2v11.6h-5.2z"
    fill="#A3E635"
  />
</svg>
